<?xml version="1.0" standalone="no"?>
<!DOCTYPE svg PUBLIC "-//W3C//DTD SVG 20010904//EN"
 "http://www.w3.org/TR/2001/REC-SVG-20010904/DTD/svg10.dtd">
<svg version="1.0" xmlns="http://www.w3.org/2000/svg"
 width="132.000000pt" height="132.000000pt" viewBox="0 0 132.000000 132.000000"
 preserveAspectRatio="xMidYMid meet">

<g transform="translate(0.000000,132.000000) scale(0.100000,-0.100000)"
fill="#000000" stroke="none">
<path d="M553 1096 c-15 -12 -50 -35 -76 -51 -27 -15 -58 -40 -69 -56 -11 -15
-32 -30 -47 -34 -43 -11 -55 -53 -25 -86 13 -15 14 -25 3 -78 -11 -52 -16 -60
-31 -55 -33 10 -151 -35 -167 -64 -15 -29 -16 -79 -2 -106 8 -14 18 -26 22
-26 4 0 0 -18 -8 -40 -14 -36 -14 -41 1 -64 16 -26 40 -33 130 -39 l50 -4 3
-149 c5 -218 6 -229 23 -229 13 0 15 26 13 186 l-2 187 31 6 c46 9 88 7 88 -4
0 -5 9 -10 20 -10 15 0 20 7 20 29 0 16 -7 34 -15 41 -22 18 -14 151 14 213
11 27 21 52 21 57 0 16 -33 20 -44 5 -10 -14 -19 -14 -71 -3 -52 12 -60 17
-63 38 -2 22 -1 23 11 8 37 -47 197 -19 197 35 0 8 9 22 20 32 20 18 20 17 20
-18 0 -58 26 -77 102 -75 54 1 67 6 91 29 17 17 27 38 27 56 0 25 5 30 44 42
24 7 55 11 68 9 20 -3 23 -9 25 -48 5 -147 12 -381 13 -417 0 -36 3 -43 19
-43 19 0 19 9 15 241 -2 133 -7 245 -10 250 -3 5 0 9 5 9 10 0 16 -22 12 -44
-1 -6 3 -20 10 -33 18 -33 45 -29 58 8 14 40 14 89 1 89 -5 0 -10 7 -10 16 0
19 -65 47 -91 39 -13 -4 -19 -2 -19 9 0 8 -26 42 -57 74 -58 59 -58 60 -148
75 -134 23 -188 22 -222 -7z m246 -46 c43 -10 63 -22 99 -59 l45 -46 -34 -3
c-19 -2 -39 -8 -46 -13 -16 -14 -179 -3 -388 27 -11 1 -24 3 -30 3 -12 2 36
40 51 41 5 0 19 8 30 18 56 51 141 61 273 32z m-381 -365 c47 -7 52 -10 46
-28 -4 -11 -6 -43 -5 -70 l1 -50 -83 6 c-45 4 -101 7 -125 7 -76 0 -112 60
-62 105 43 39 114 48 228 30z m-8 -184 c42 -6 44 -8 46 -40 l2 -34 -82 7
c-180 15 -200 21 -180 54 20 31 64 34 214 13z"/>
<path d="M996 332 c-3 -5 -4 -29 -2 -53 3 -24 8 -95 12 -156 6 -100 9 -113 25
-113 17 0 18 7 13 93 -10 173 -28 260 -48 229z"/>
</g>
</svg>
